<svg width="22" height="22" viewBox="0 0 22 22" fill="none" xmlns="http://www.w3.org/2000/svg">
<path d="M17.875 2.75H15.8125V2.0625C15.8125 1.88016 15.7401 1.7053 15.6111 1.57636C15.4822 1.44743 15.3073 1.375 15.125 1.375C14.9427 1.375 14.7678 1.44743 14.6389 1.57636C14.5099 1.7053 14.4375 1.88016 14.4375 2.0625V2.75H7.5625V2.0625C7.5625 1.88016 7.49007 1.7053 7.36114 1.57636C7.2322 1.44743 7.05734 1.375 6.875 1.375C6.69266 1.375 6.5178 1.44743 6.38886 1.57636C6.25993 1.7053 6.1875 1.88016 6.1875 2.0625V2.75H4.125C3.76033 2.75 3.41059 2.89487 3.15273 3.15273C2.89487 3.41059 2.75 3.76033 2.75 4.125V17.875C2.75 18.2397 2.89487 18.5894 3.15273 18.8473C3.41059 19.1051 3.76033 19.25 4.125 19.25H17.875C18.2397 19.25 18.5894 19.1051 18.8473 18.8473C19.1051 18.5894 19.25 18.2397 19.25 17.875V4.125C19.25 3.76033 19.1051 3.41059 18.8473 3.15273C18.5894 2.89487 18.2397 2.75 17.875 2.75ZM6.1875 4.125V4.8125C6.1875 4.99484 6.25993 5.1697 6.38886 5.29864C6.5178 5.42757 6.69266 5.5 6.875 5.5C7.05734 5.5 7.2322 5.42757 7.36114 5.29864C7.49007 5.1697 7.5625 4.99484 7.5625 4.8125V4.125H14.4375V4.8125C14.4375 4.99484 14.5099 5.1697 14.6389 5.29864C14.7678 5.42757 14.9427 5.5 15.125 5.5C15.3073 5.5 15.4822 5.42757 15.6111 5.29864C15.7401 5.1697 15.8125 4.99484 15.8125 4.8125V4.125H17.875V6.875H4.125V4.125H6.1875ZM17.875 17.875H4.125V8.25H17.875V17.875ZM12.0312 11.3438C12.0312 11.5477 11.9708 11.7471 11.8575 11.9167C11.7441 12.0863 11.5831 12.2184 11.3946 12.2965C11.2062 12.3746 10.9989 12.395 10.7988 12.3552C10.5988 12.3154 10.415 12.2172 10.2708 12.073C10.1266 11.9287 10.0284 11.745 9.98856 11.5449C9.94877 11.3449 9.9692 11.1375 10.0472 10.9491C10.1253 10.7607 10.2575 10.5996 10.4271 10.4863C10.5967 10.373 10.796 10.3125 11 10.3125C11.2735 10.3125 11.5358 10.4211 11.7292 10.6145C11.9226 10.8079 12.0312 11.0702 12.0312 11.3438ZM15.8125 11.3438C15.8125 11.5477 15.752 11.7471 15.6387 11.9167C15.5254 12.0863 15.3643 12.2184 15.1759 12.2965C14.9875 12.3746 14.7801 12.395 14.5801 12.3552C14.38 12.3154 14.1963 12.2172 14.052 12.073C13.9078 11.9287 13.8096 11.745 13.7698 11.5449C13.73 11.3449 13.7504 11.1375 13.8285 10.9491C13.9066 10.7607 14.0387 10.5996 14.2083 10.4863C14.3779 10.373 14.5773 10.3125 14.7812 10.3125C15.0548 10.3125 15.3171 10.4211 15.5105 10.6145C15.7038 10.8079 15.8125 11.0702 15.8125 11.3438ZM8.25 14.7812C8.25 14.9852 8.18952 15.1846 8.0762 15.3542C7.96289 15.5238 7.80183 15.6559 7.61339 15.734C7.42496 15.8121 7.21761 15.8325 7.01756 15.7927C6.81752 15.7529 6.63377 15.6547 6.48955 15.5105C6.34532 15.3662 6.24711 15.1825 6.20731 14.9824C6.16752 14.7824 6.18795 14.575 6.266 14.3866C6.34405 14.1982 6.47623 14.0371 6.64582 13.9238C6.81541 13.8105 7.01479 13.75 7.21875 13.75C7.49225 13.75 7.75456 13.8587 7.94795 14.052C8.14135 14.2454 8.25 14.5077 8.25 14.7812ZM12.0312 14.7812C12.0312 14.9852 11.9708 15.1846 11.8575 15.3542C11.7441 15.5238 11.5831 15.6559 11.3946 15.734C11.2062 15.8121 10.9989 15.8325 10.7988 15.7927C10.5988 15.7529 10.415 15.6547 10.2708 15.5105C10.1266 15.3662 10.0284 15.1825 9.98856 14.9824C9.94877 14.7824 9.9692 14.575 10.0472 14.3866C10.1253 14.1982 10.2575 14.0371 10.4271 13.9238C10.5967 13.8105 10.796 13.75 11 13.75C11.2735 13.75 11.5358 13.8587 11.7292 14.052C11.9226 14.2454 12.0312 14.5077 12.0312 14.7812ZM15.8125 14.7812C15.8125 14.9852 15.752 15.1846 15.6387 15.3542C15.5254 15.5238 15.3643 15.6559 15.1759 15.734C14.9875 15.8121 14.7801 15.8325 14.5801 15.7927C14.38 15.7529 14.1963 15.6547 14.052 15.5105C13.9078 15.3662 13.8096 15.1825 13.7698 14.9824C13.73 14.7824 13.7504 14.575 13.8285 14.3866C13.9066 14.1982 14.0387 14.0371 14.2083 13.9238C14.3779 13.8105 14.5773 13.75 14.7812 13.75C15.0548 13.75 15.3171 13.8587 15.5105 14.052C15.7038 14.2454 15.8125 14.5077 15.8125 14.7812Z" fill="#0D3E7F"/>
</svg>
