<svg width="35" height="35" viewBox="0 0 35 35" fill="none" xmlns="http://www.w3.org/2000/svg">
<g clip-path="url(#clip0_16466_14463)">
<path d="M17.1427 34.2854C26.6103 34.2854 34.2854 26.6103 34.2854 17.1427C34.2854 7.67504 26.6103 0 17.1427 0C7.67504 0 0 7.67504 0 17.1427C0 26.6103 7.67504 34.2854 17.1427 34.2854Z" fill="#0052B4"/>
<path d="M17.144 6.70801L17.6991 8.41618H19.4951L18.042 9.47186L18.5971 11.18L17.144 10.1243L15.6909 11.18L16.246 9.47186L14.793 8.41618H16.589L17.144 6.70801Z" fill="#FFDA44"/>
<path d="M9.76601 9.76412L11.3664 10.5795L12.6364 9.30957L12.3554 11.0834L13.9557 11.8989L12.1818 12.1798L11.9008 13.9538L11.0854 12.3535L9.31152 12.6345L10.5815 11.3646L9.76601 9.76412Z" fill="#FFDA44"/>
<path d="M6.70898 17.1431L8.41716 16.588V14.792L9.47277 16.2451L11.181 15.69L10.1252 17.1431L11.181 18.5961L9.47277 18.0411L8.41716 19.4942V17.6981L6.70898 17.1431Z" fill="#FFDA44"/>
<path d="M9.76601 24.5207L10.5814 22.9203L9.31152 21.6503L11.0855 21.9314L11.9007 20.3311L12.1818 22.105L13.9557 22.386L12.3555 23.2014L12.6364 24.9752L11.3664 23.7053L9.76601 24.5207Z" fill="#FFDA44"/>
<path d="M17.144 27.5774L16.5889 25.8692H14.793L16.2461 24.8135L15.6909 23.1055L17.144 24.1611L18.5971 23.1055L18.042 24.8135L19.4951 25.8692H17.699L17.144 27.5774Z" fill="#FFDA44"/>
<path d="M24.5216 24.5207L22.9212 23.7054L21.6512 24.9753L21.9323 23.2013L20.332 22.386L22.1059 22.105L22.3869 20.3311L23.2022 21.9314L24.9761 21.6503L23.7061 22.9204L24.5216 24.5207Z" fill="#FFDA44"/>
<path d="M27.5783 17.1431L25.8702 17.6981V19.4942L24.8145 18.0411L23.1064 18.5961L24.1621 17.1431L23.1064 15.69L24.8146 16.2451L25.8702 14.792V16.5881L27.5783 17.1431Z" fill="#FFDA44"/>
<path d="M24.5216 9.76405L23.7062 11.3645L24.9762 12.6344L23.2022 12.3533L22.3869 13.9537L22.1059 12.1798L20.332 11.8987L21.9323 11.0834L21.6512 9.30957L22.9213 10.5795L24.5216 9.76405Z" fill="#FFDA44"/>
</g>
<defs>
<clipPath id="clip0_16466_14463">
<rect width="34.2854" height="34.2854" fill="white"/>
</clipPath>
</defs>
</svg>
