<svg width="35" height="35" viewBox="0 0 35 35" fill="none" xmlns="http://www.w3.org/2000/svg">
<path d="M34.1403 14.9067H19.3788H19.3787V0.14511C18.6468 0.0498209 17.9005 0 17.1427 0C16.3847 0 15.6386 0.0498209 14.9067 0.14511V14.9066V14.9066H0.14511C0.0498209 15.6386 0 16.3849 0 17.1427C0 17.9006 0.0498209 18.6468 0.14511 19.3787H14.9066H14.9066V34.1403C15.6386 34.2356 16.3847 34.2854 17.1427 34.2854C17.9005 34.2854 18.6468 34.2356 19.3787 34.1403V19.3788V19.3787H34.1403C34.2356 18.6468 34.2854 17.9006 34.2854 17.1427C34.2854 16.3849 34.2356 15.6386 34.1403 14.9067Z" fill="#D80027"/>
<path d="M21.6152 21.6143L29.2649 29.264C29.6167 28.9123 29.9523 28.5446 30.2726 28.1634L23.7234 21.6143H21.6152V21.6143Z" fill="#D80027"/>
<path d="M12.6702 21.6152H12.6701L5.02051 29.2648C5.3722 29.6167 5.7399 29.9523 6.12105 30.2725L12.6702 23.7232V21.6152Z" fill="#D80027"/>
<path d="M12.671 12.6704V12.6702L5.02134 5.02051C4.66951 5.3722 4.33389 5.7399 4.01367 6.12106L10.5629 12.6703H12.671V12.6704Z" fill="#D80027"/>
<path d="M21.6152 12.6711L29.265 5.02127C28.9133 4.66945 28.5456 4.33382 28.1644 4.01367L21.6152 10.5629V12.6711Z" fill="#D80027"/>
</svg>
