<svg width="24" height="24" viewBox="0 0 24 24" fill="none" xmlns="http://www.w3.org/2000/svg">
<g clip-path="url(#clip0_12639_96968)">
<g clip-path="url(#clip1_12639_96968)">
<path fill-rule="evenodd" clip-rule="evenodd" d="M4.19922 7.75524V16.2494C4.19922 16.9901 4.80364 17.5905 5.54922 17.5905H11.8492C15.5439 17.5905 18.6912 15.2624 19.8858 12.0023C18.6912 8.74218 15.5439 6.41406 11.8492 6.41406H5.54922C4.80364 6.41406 4.19922 7.01453 4.19922 7.75524Z" fill="#002D74"/>
<path fill-rule="evenodd" clip-rule="evenodd" d="M19.8858 12.0039C18.6912 15.264 15.5439 17.5921 11.8492 17.5921H5.54922C4.80363 17.5921 4.19922 16.9917 4.19922 16.251V22.0627C4.19922 22.8034 4.80363 23.4039 5.54922 23.4039H11.8492C16.5713 23.4039 20.3992 19.601 20.3992 14.9098C20.3992 13.8891 20.218 12.9105 19.8858 12.0039Z" fill="#3DAE2B"/>
<path fill-rule="evenodd" clip-rule="evenodd" d="M19.8858 12.0039C18.6912 8.74379 15.5439 6.41567 11.8492 6.41567H5.54922C4.80363 6.41567 4.19922 7.01614 4.19922 7.75685V1.94508C4.19922 1.20437 4.80363 0.603907 5.54922 0.603907H11.8492C16.5713 0.603907 20.3992 4.40685 20.3992 9.09802C20.3992 10.1187 20.218 11.0973 19.8858 12.0039Z" fill="#4197CB"/>
</g>
</g>
<defs>
<clipPath id="clip0_12639_96968">
<rect width="24" height="24" fill="white"/>
</clipPath>
<clipPath id="clip1_12639_96968">
<rect width="16.2" height="22.8" fill="white" transform="translate(4.19922 0.597656)"/>
</clipPath>
</defs>
</svg>
