<svg width="24" height="24" viewBox="0 0 24 24" fill="none" xmlns="http://www.w3.org/2000/svg">
<g clip-path="url(#clip0_12639_97045)">
<path d="M11.9991 9.23862C8.74339 9.23862 5.53189 8.77737 2.45539 7.86837C2.09764 7.76262 2.19064 7.48137 2.29639 7.12362C2.40214 6.76587 2.48089 6.46887 2.83789 6.57387C8.74339 8.31912 15.2556 8.31912 21.1611 6.57387C21.5189 6.46887 21.5504 6.65712 21.6561 7.01487C21.7619 7.37262 21.9014 7.76337 21.5436 7.86912C18.4664 8.77737 15.2549 9.23862 11.9991 9.23862Z" fill="#3DAE2B"/>
<path d="M21.3531 17.4521C21.2901 17.4521 21.2256 17.4431 21.1619 17.4244C15.2564 15.6791 8.74415 15.6791 2.83865 17.4244C2.4824 17.5294 2.6054 17.1694 2.5004 16.8116C2.39465 16.4539 2.09915 16.2349 2.4569 16.1291C8.6099 14.3111 15.3914 14.3111 21.5444 16.1291C21.9021 16.2349 21.2309 16.5169 21.1259 16.8739C21.0381 17.1679 21.6441 17.4521 21.3531 17.4521Z" fill="#3DAE2B"/>
<path d="M11.9992 0.824219C5.83722 0.824219 0.824219 5.83722 0.824219 11.9992C0.824219 18.1612 5.83722 23.1742 11.9992 23.1742C18.1612 23.1742 23.1742 18.1612 23.1742 11.9992C23.1742 5.83722 18.1612 0.824219 11.9992 0.824219ZM15.6922 11.9992C15.6922 17.7892 13.746 21.8242 11.9992 21.8242C10.2525 21.8242 8.30622 17.7892 8.30622 11.9992C8.30622 6.20922 10.2525 2.17422 11.9992 2.17422C13.746 2.17422 15.6922 6.20922 15.6922 11.9992ZM2.17422 11.9992C2.17422 7.54947 5.15022 3.78597 9.21522 2.58222C7.83597 4.53297 6.95622 7.94622 6.95622 11.9992C6.95622 16.0522 7.83597 19.4655 9.21447 21.4162C5.15022 20.2125 2.17422 16.449 2.17422 11.9992ZM14.7832 21.4162C16.1617 19.4647 17.0415 16.0522 17.0415 11.9992C17.0415 7.94622 16.1617 4.53297 14.7832 2.58222C18.8482 3.78597 21.8242 7.54947 21.8242 11.9992C21.8242 16.449 18.8482 20.2125 14.7832 21.4162Z" fill="#0D3E7F"/>
</g>
<defs>
<clipPath id="clip0_12639_97045">
<rect width="24" height="24" fill="white"/>
</clipPath>
</defs>
</svg>
