<svg width="35" height="35" viewBox="0 0 35 35" fill="none" xmlns="http://www.w3.org/2000/svg">
<g clip-path="url(#clip0_16466_14437)">
<path d="M17.1427 34.2854C26.6103 34.2854 34.2854 26.6103 34.2854 17.1427C34.2854 7.67504 26.6103 0 17.1427 0C7.67504 0 0 7.67504 0 17.1427C0 26.6103 7.67504 34.2854 17.1427 34.2854Z" fill="#F0F0F0"/>
<path d="M34.2854 17.1427C34.2854 7.6751 26.6103 0 17.1427 0C13.7891 0 10.661 0.963941 8.01875 2.62839L11.7763 4.22487L6.70801 6.37828L11.7763 8.53163L6.70801 10.6849L11.7763 12.8381L6.70801 14.9911L11.7763 17.1439L6.70801 19.2972L11.7763 21.4503L6.70801 23.6033L11.7763 25.7564L6.70801 27.9097L11.7763 30.0626L8.02043 31.6583C10.6623 33.3219 13.7898 34.2854 17.1427 34.2854C26.6103 34.2854 34.2854 26.6103 34.2854 17.1427Z" fill="#751A46"/>
</g>
<defs>
<clipPath id="clip0_16466_14437">
<rect width="34.2854" height="34.2854" fill="white"/>
</clipPath>
</defs>
</svg>
