<svg width="35" height="35" viewBox="0 0 35 35" fill="none" xmlns="http://www.w3.org/2000/svg">
<g clip-path="url(#clip0_16466_14448)">
<path d="M17.1427 34.2854C26.6103 34.2854 34.2854 26.6103 34.2854 17.1427C34.2854 7.67504 26.6103 0 17.1427 0C7.67504 0 0 7.67504 0 17.1427C0 26.6103 7.67504 34.2854 17.1427 34.2854Z" fill="#F0F0F0"/>
<path d="M16.3984 17.1429H34.2864C34.2864 15.5957 34.0802 14.0968 33.6959 12.6709H16.3984V17.1429Z" fill="#D80027"/>
<path d="M16.3984 8.19859H31.7703C30.721 6.4862 29.3792 4.97262 27.8148 3.72656H16.3984V8.19859Z" fill="#D80027"/>
<path d="M17.1427 34.2852C21.1772 34.2852 24.8855 32.8908 27.8138 30.5586H6.47168C9.4 32.8908 13.1082 34.2852 17.1427 34.2852Z" fill="#D80027"/>
<path d="M2.51636 26.0863H31.7695C32.612 24.7116 33.2654 23.2089 33.6951 21.6143H0.59082C1.02053 23.2089 1.67389 24.7116 2.51636 26.0863Z" fill="#D80027"/>
<path d="M7.94081 2.67707H9.50301L8.0499 3.73275L8.60496 5.44093L7.15192 4.38525L5.69887 5.44093L6.17833 3.96525C4.89892 5.03098 3.77755 6.27958 2.85345 7.67082H3.35401L2.42904 8.3428C2.28493 8.5832 2.14672 8.82741 2.01427 9.07524L2.45596 10.4347L1.6319 9.83595C1.42706 10.2699 1.2397 10.7137 1.07128 11.1667L1.55791 12.6646H3.35401L1.9009 13.7202L2.45596 15.4284L1.00291 14.3727L0.132521 15.0051C0.0454013 15.7054 0 16.4187 0 17.1427H17.1427C17.1427 7.6751 17.1427 6.55895 17.1427 0C13.7562 0 10.5993 0.982356 7.94081 2.67707ZM8.60496 15.4284L7.15192 14.3727L5.69887 15.4284L6.25393 13.7202L4.80082 12.6646H6.59692L7.15192 10.9564L7.70691 12.6646H9.50301L8.0499 13.7202L8.60496 15.4284ZM8.0499 8.7265L8.60496 10.4347L7.15192 9.37899L5.69887 10.4347L6.25393 8.7265L4.80082 7.67082H6.59692L7.15192 5.96264L7.70691 7.67082H9.50301L8.0499 8.7265ZM14.754 15.4284L13.3009 14.3727L11.8479 15.4284L12.4029 13.7202L10.9498 12.6646H12.7459L13.3009 10.9564L13.8559 12.6646H15.652L14.1989 13.7202L14.754 15.4284ZM14.1989 8.7265L14.754 10.4347L13.3009 9.37899L11.8479 10.4347L12.4029 8.7265L10.9498 7.67082H12.7459L13.3009 5.96264L13.8559 7.67082H15.652L14.1989 8.7265ZM14.1989 3.73275L14.754 5.44093L13.3009 4.38525L11.8479 5.44093L12.4029 3.73275L10.9498 2.67707H12.7459L13.3009 0.968897L13.8559 2.67707H15.652L14.1989 3.73275Z" fill="#0052B4"/>
</g>
<defs>
<clipPath id="clip0_16466_14448">
<rect width="34.2854" height="34.2854" fill="white"/>
</clipPath>
</defs>
</svg>
