<svg width="22" height="22" viewBox="0 0 22 22" fill="none" xmlns="http://www.w3.org/2000/svg">
<g clip-path="url(#clip0_12639_96961)">
<path d="M21.7993 11.4873L19.7368 13.5498C19.6729 13.6137 19.5971 13.6644 19.5137 13.699C19.4302 13.7336 19.3407 13.7514 19.2504 13.7514C19.16 13.7514 19.0706 13.7336 18.9871 13.699C18.9037 13.6644 18.8278 13.6137 18.764 13.5498L16.7015 11.4873C16.5725 11.3583 16.5 11.1833 16.5 11.0009C16.5 10.8185 16.5725 10.6435 16.7015 10.5145C16.8305 10.3855 17.0054 10.313 17.1879 10.313C17.3703 10.313 17.5453 10.3855 17.6743 10.5145L18.5629 11.404V11.0009C18.5637 9.39957 18.0561 7.83932 17.1134 6.54492C16.1706 5.25051 14.8413 4.28877 13.317 3.79824C11.7926 3.30771 10.1519 3.3137 8.6312 3.81537C7.11048 4.31703 5.78825 5.28847 4.85499 6.58973C4.74855 6.73788 4.58762 6.83768 4.4076 6.86717C4.22758 6.89667 4.04322 6.85344 3.89507 6.747C3.74692 6.64056 3.64712 6.47963 3.61763 6.29961C3.58814 6.11959 3.63137 5.93523 3.7378 5.78708C4.8408 4.24924 6.40348 3.10123 8.20073 2.50841C9.99798 1.91559 11.937 1.90857 13.7385 2.48836C15.54 3.06815 17.111 4.20482 18.2251 5.73463C19.3392 7.26444 19.9389 9.10841 19.9379 11.0009V11.404L20.8265 10.5145C20.9555 10.3855 21.1304 10.313 21.3129 10.313C21.4953 10.313 21.6703 10.3855 21.7993 10.5145C21.9283 10.6435 22.0008 10.8185 22.0008 11.0009C22.0008 11.1833 21.9283 11.3583 21.7993 11.4873ZM18.2604 16.2139C17.1571 17.7505 15.5946 18.8975 13.7979 19.4896C12.0013 20.0818 10.063 20.0886 8.26227 19.509C6.4615 18.9294 4.89106 17.7934 3.77702 16.2645C2.66299 14.7356 2.06281 12.8926 2.06288 11.0009V10.5979L1.17429 11.4873C1.04529 11.6163 0.87032 11.6888 0.687882 11.6888C0.505445 11.6888 0.330479 11.6163 0.201476 11.4873C0.0724731 11.3583 0 11.1833 0 11.0009C0 10.8185 0.0724731 10.6435 0.201476 10.5145L2.26398 8.452C2.32783 8.38808 2.40365 8.33737 2.48711 8.30277C2.57057 8.26817 2.66003 8.25037 2.75038 8.25037C2.84073 8.25037 2.93019 8.26817 3.01365 8.30277C3.09711 8.33737 3.17294 8.38808 3.23679 8.452L5.29929 10.5145C5.42829 10.6435 5.50076 10.8185 5.50076 11.0009C5.50076 11.1833 5.42829 11.3583 5.29929 11.4873C5.17029 11.6163 4.99532 11.6888 4.81288 11.6888C4.63044 11.6888 4.45548 11.6163 4.32648 11.4873L3.43788 10.5979V11.0009C3.43625 12.8522 4.11666 14.6391 5.34913 16.0205C6.11589 14.9094 7.19405 14.0498 8.44804 13.5498C7.77445 13.0193 7.28292 12.292 7.04182 11.4692C6.80071 10.6463 6.82202 9.76881 7.10276 8.95864C7.38351 8.14847 7.90974 7.44592 8.60828 6.94869C9.30682 6.45146 10.1429 6.18426 11.0004 6.18426C11.8578 6.18426 12.6939 6.45146 13.3925 6.94869C14.091 7.44592 14.6173 8.14847 14.898 8.95864C15.1787 9.76881 15.2 10.6463 14.9589 11.4692C14.7178 12.292 14.2263 13.0193 13.5527 13.5498C14.8079 14.0499 15.8868 14.9105 16.6534 16.0231C16.8272 15.8279 16.991 15.6239 17.1441 15.4121C17.2505 15.2639 17.4114 15.1641 17.5914 15.1346C17.7715 15.1051 17.9558 15.1484 18.104 15.2548C18.2521 15.3613 18.3519 15.5222 18.3814 15.7022C18.4109 15.8822 18.3677 16.0666 18.2612 16.2147L18.2604 16.2139ZM11.0004 13.0634C11.5443 13.0634 12.076 12.9021 12.5282 12.5999C12.9804 12.2978 13.3329 11.8683 13.5411 11.3658C13.7492 10.8633 13.8037 10.3104 13.6975 9.77691C13.5914 9.24346 13.3295 8.75346 12.9449 8.36886C12.5603 7.98427 12.0703 7.72236 11.5369 7.61625C11.0034 7.51014 10.4505 7.5646 9.948 7.77274C9.44551 7.98088 9.01602 8.33335 8.71384 8.78559C8.41167 9.23782 8.25038 9.76951 8.25038 10.3134C8.25038 11.0428 8.54011 11.7422 9.05584 12.2579C9.57156 12.7737 10.271 13.0634 11.0004 13.0634ZM11.0004 18.5634C12.6783 18.5612 14.308 18.0024 15.6341 16.9744C15.1368 16.1966 14.4516 15.5565 13.6418 15.1131C12.832 14.6697 11.9236 14.4373 11.0004 14.4373C10.0771 14.4373 9.16874 14.6697 8.35894 15.1131C7.54914 15.5565 6.86398 16.1966 6.36663 16.9744C7.69078 18.006 9.32181 18.5653 11.0004 18.5634Z" fill="#0D3E7F"/>
</g>
<defs>
<clipPath id="clip0_12639_96961">
<rect width="22" height="22" fill="white"/>
</clipPath>
</defs>
</svg>
