<svg width="24" height="24" viewBox="0 0 24 24" fill="none" xmlns="http://www.w3.org/2000/svg">
<rect width="24" height="24" rx="12" fill="black"/>
<path d="M2.88281 7.62575C4.37733 7.61967 5.86577 7.62575 7.36029 7.62575C8.93176 10.3394 10.5012 13.055 12.0686 15.7727C11.8742 16.0947 11.692 16.4227 11.4976 16.7447C11.2485 17.1579 10.9143 17.5406 10.4708 17.7472C10.1428 17.9112 9.7418 17.9476 9.38944 17.8322C8.97024 17.6986 8.63003 17.4009 8.36879 17.0607C8.20476 16.8541 8.08325 16.6172 7.94959 16.3924C6.26067 13.4702 4.57174 10.548 2.88281 7.62575ZM8.83659 7.62575C10.325 7.61967 11.8195 7.62575 13.308 7.62575C14.3529 9.42403 15.3979 11.2284 16.4368 13.0267C16.5036 13.136 16.5583 13.2575 16.6494 13.3487C16.8499 13.5795 17.1779 13.695 17.4817 13.616C17.7065 13.5613 17.8948 13.3973 18.0224 13.2029C16.9471 11.3438 15.8718 9.48478 14.7964 7.62575C16.2869 7.62575 17.7794 7.62575 19.2739 7.62575C19.849 8.62209 20.4242 9.62046 20.9993 10.6209C19.8247 12.65 18.6502 14.6812 17.4756 16.7144C17.2448 17.1093 16.941 17.4677 16.54 17.6925C16.2059 17.8869 15.7928 17.9537 15.4161 17.8504C14.9848 17.7411 14.6324 17.4495 14.359 17.1032C14.1707 16.8723 14.0309 16.6111 13.8851 16.3498C12.2003 13.4418 10.5174 10.5338 8.83659 7.62575Z" fill="#FFDD00"/>
</svg>
